<?xml version="1.0" encoding="utf-8"?>
<!-- Generator: Adobe Illustrator 25.1.0, SVG Export Plug-In . SVG Version: 6.00 Build 0)  -->
<svg version="1.1" id="Layer_1" xmlns="http://www.w3.org/2000/svg" xmlns:xlink="http://www.w3.org/1999/xlink" x="0px" y="0px"
	 viewBox="0 0 1366 768" style="enable-background:new 0 0 1366 768;" xml:space="preserve">
<style type="text/css">
	.st0{enable-background:new    ;}
	.st1{clip-path:url(#SVGID_2_);}
	.st2{clip-path:url(#SVGID_4_);}
	.st3{clip-path:url(#SVGID_6_);}
	.st4{clip-path:url(#SVGID_8_);}
</style>
<g>
	<g>
		<g>
			<g class="st0">
				<defs>
					<polygon id="SVGID_1_" class="st0" points="484.68,461 484.91,383.83 709.88,255.66 709.66,332.82 					"/>
				</defs>
				<clipPath id="SVGID_2_">
					<use xlink:href="#SVGID_1_"  style="overflow:visible;"/>
				</clipPath>
				<g class="st1">
					<g>
						<g>
							<g>
								<path d="M512.43,368.68l-12.32,7.02l-0.01,1.97l2.36-1.35l-0.2,68.35c0,1.2-0.38,2.44-1.12,3.72
									c-0.74,1.27-1.64,2.2-2.69,2.8c-1.02,0.58-1.9,0.67-2.64,0.23c-0.74-0.43-1.11-1.24-1.11-2.45l0.2-68.35l2.36-1.35
									l0.01-1.97l-12.38,7.05l-0.01,1.97l2.41-1.38l-0.18,63.58c-0.01,3.04,1.09,5.03,3.31,5.93c2.22,0.91,4.89,0.47,8.01-1.3
									c3.15-1.8,5.84-4.41,8.07-7.86c2.23-3.44,3.34-6.68,3.35-9.73l0.18-63.58l2.36-1.35L512.43,368.68"/>
								<polyline points="539.49,353.26 532.4,357.3 532.4,359.26 534.76,357.92 534.61,408.81 524.43,361.84 514.84,367.31 
									514.83,369.27 517.2,367.92 516.99,440.1 514.62,441.45 514.62,443.41 521.71,439.37 521.71,437.41 519.35,438.75 
									519.52,381.49 530.84,434.17 536.91,430.71 537.12,356.57 539.49,355.22 539.49,353.26 								"/>
								<path d="M552.12,420.09l0.21-72.18l3.29-1.87c1.05-0.6,1.95-0.68,2.69-0.26c0.74,0.42,1.1,1.24,1.1,2.44l-0.18,63.48
									c0,1.2-0.37,2.44-1.12,3.71c-0.75,1.27-1.64,2.21-2.69,2.81L552.12,420.09 M555.62,344.07l-13.25,7.55l-0.01,1.97l2.36-1.35
									l-0.21,72.18l-2.36,1.35l-0.01,1.97l13.25-7.55c3.15-1.8,5.85-4.42,8.07-7.86c2.23-3.45,3.35-6.68,3.36-9.73l0.16-53.92
									c0.01-3.04-1.1-5.01-3.31-5.93C561.45,341.84,558.77,342.28,555.62,344.07"/>
								<polyline points="595.05,321.61 571.33,335.12 571.32,337.09 573.68,335.74 573.47,407.92 571.11,409.26 571.11,411.23 
									594.83,397.71 594.9,374.89 587.3,379.22 587.24,400.08 581.08,403.59 581.18,366.33 590.17,361.21 590.18,359.25 
									581.19,364.37 581.28,331.41 587.45,327.9 587.39,348.76 594.98,344.43 595.05,321.61 								"/>
								<path d="M608.71,348.68l0.1-32.96l3.29-1.87c1.05-0.6,1.95-0.68,2.69-0.26c0.74,0.42,1.11,1.24,1.11,2.44l-0.07,24.25
									c0,1.2-0.38,2.44-1.12,3.72c-0.75,1.27-1.64,2.2-2.69,2.8L608.71,348.68 M612.1,311.89l-13.25,7.55l-0.01,1.97l2.36-1.35
									L601,392.24l-2.36,1.35l-0.01,1.97l12.33-7.03l0.01-1.97l-2.36,1.35l0.11-37.25l3.29-1.87c1.05-0.6,1.95-0.68,2.69-0.26
									c0.74,0.43,1.11,1.24,1.11,2.45l-0.08,26.91c-0.02,5.3,2.2,6.69,6.65,4.16l3.29-1.88l0.01-1.97l-0.19,0.11
									c-1.45,0.83-2.18,0.27-2.17-1.68l0.07-25.21c0.01-4.64-2.19-6.75-6.6-6.36c4.43-4.5,6.65-9.12,6.66-13.86l0.04-14.7
									c0.01-3.04-1.1-5.01-3.31-5.93C617.94,309.66,615.25,310.1,612.1,311.89"/>
								<path d="M638.02,371.14l0.21-72.18l3.29-1.88c1.05-0.6,1.95-0.68,2.68-0.25c0.74,0.42,1.11,1.24,1.11,2.44l-0.18,63.48
									c0,1.2-0.38,2.44-1.12,3.71c-0.74,1.27-1.64,2.21-2.69,2.81L638.02,371.14 M641.53,295.12l-13.25,7.55l-0.01,1.97l2.36-1.35
									l-0.21,72.18l-2.36,1.35l-0.01,1.97l13.25-7.55c3.15-1.8,5.84-4.42,8.07-7.86c2.23-3.45,3.34-6.68,3.35-9.73l0.16-53.92
									c0.01-3.04-1.09-5.02-3.31-5.93C647.36,292.89,644.68,293.33,641.53,295.12"/>
								<path d="M669.81,353.56c-1.05,0.6-1.95,0.69-2.69,0.26c-0.74-0.43-1.1-1.25-1.1-2.45l0.19-64.53c0-1.2,0.37-2.44,1.12-3.71
									c0.75-1.27,1.64-2.2,2.69-2.8c1.05-0.6,1.95-0.69,2.68-0.26c0.74,0.43,1.11,1.24,1.11,2.45l-0.19,64.53
									c0,1.2-0.38,2.44-1.12,3.72C671.76,352.03,670.86,352.96,669.81,353.56 M670.03,278.36c-3.12,1.78-5.81,4.39-8.05,7.84
									c-2.25,3.45-3.38,6.7-3.39,9.74l-0.16,54.98c-0.01,3.04,1.1,5.02,3.34,5.91c2.23,0.91,4.91,0.46,8.03-1.32
									c3.15-1.8,5.84-4.41,8.07-7.86c2.24-3.44,3.35-6.68,3.36-9.73l0.16-54.98c0.01-3.04-1.09-5.03-3.31-5.93
									C675.86,276.12,673.18,276.56,670.03,278.36"/>
								<path d="M698.48,262.15c-3.12,1.78-5.8,4.39-8.05,7.84c-2.25,3.45-3.37,6.7-3.38,9.74l-0.16,54.98
									c-0.01,3.04,1.1,5.02,3.33,5.92c2.24,0.9,4.91,0.46,8.03-1.32c3.15-1.8,5.85-4.41,8.07-7.86c2.23-3.44,3.35-6.68,3.36-9.73
									l0.09-30.62l-11.4,6.5l-0.01,1.97l3.8-2.17l-0.1,33.43c0,1.2-0.38,2.44-1.12,3.72c-0.75,1.27-1.64,2.2-2.69,2.8
									c-1.05,0.6-1.95,0.69-2.68,0.26c-0.74-0.43-1.11-1.24-1.11-2.45l0.19-64.53c0-1.2,0.38-2.44,1.12-3.72
									c0.74-1.27,1.64-2.2,2.69-2.8c1.05-0.6,1.95-0.69,2.69-0.26s1.11,1.24,1.11,2.45l-0.05,17.04l7.6-4.33l0.04-12.26
									c0.01-3.04-1.1-5.02-3.31-5.93C704.32,259.91,701.63,260.36,698.48,262.15"/>
							</g>
						</g>
					</g>
				</g>
			</g>
		</g>
	</g>
	<g>
		<g>
			<g class="st0">
				<defs>
					<polygon id="SVGID_3_" class="st0" points="544.35,519.22 543.57,431.36 787.71,288.44 788.49,376.3 					"/>
				</defs>
				<clipPath id="SVGID_4_">
					<use xlink:href="#SVGID_3_"  style="overflow:visible;"/>
				</clipPath>
				<g class="st2">
					<g>
						<g>
							<g>
								<path d="M556.46,423.82c-3.53,2.07-6.55,5.08-9.06,9.03c-2.51,3.96-3.75,7.67-3.72,11.14l0.56,62.6
									c0.03,3.46,1.32,5.69,3.88,6.69c2.55,1,5.59,0.46,9.12-1.6c3.56-2.09,6.59-5.11,9.08-9.06s3.72-7.66,3.69-11.12l-0.31-34.86
									l-12.89,7.55l0.02,2.24l4.29-2.51l0.34,38.06c0.01,1.37-0.4,2.78-1.23,4.24c-0.82,1.46-1.84,2.54-3.02,3.23
									c-1.19,0.7-2.21,0.8-3.05,0.33c-0.85-0.48-1.28-1.4-1.29-2.77l-0.65-73.47c-0.01-1.37,0.4-2.78,1.23-4.24
									c0.83-1.45,1.84-2.53,3.03-3.23c1.18-0.69,2.21-0.8,3.05-0.33c0.85,0.48,1.28,1.4,1.29,2.77l0.17,19.4l8.6-5.03l-0.12-13.96
									c-0.03-3.46-1.32-5.7-3.85-6.7C563.08,421.19,560.02,421.73,556.46,423.82"/>
								<path d="M585.79,447.22l-0.33-37.52l3.72-2.18c1.19-0.7,2.21-0.8,3.05-0.33c0.85,0.47,1.28,1.4,1.29,2.76l0.25,27.61
									c0.01,1.37-0.4,2.78-1.23,4.24s-1.84,2.54-3.03,3.23L585.79,447.22 M589.16,405.28l-14.98,8.77l0.02,2.24l2.67-1.56
									l0.73,82.17l-2.67,1.56l0.02,2.24l13.93-8.16l-0.02-2.24l-2.67,1.56l-0.38-42.41l3.72-2.18c1.19-0.7,2.21-0.81,3.05-0.34
									c0.85,0.48,1.28,1.4,1.29,2.77l0.27,30.64c0.05,6.04,2.59,7.59,7.63,4.64l3.72-2.18l-0.02-2.24l-0.21,0.12
									c-1.64,0.96-2.47,0.33-2.49-1.88l-0.25-28.7c-0.05-5.27-2.57-7.66-7.59-7.16c4.97-5.18,7.43-10.47,7.39-15.87l-0.15-16.73
									c-0.03-3.47-1.31-5.71-3.85-6.7C595.78,402.65,592.73,403.19,589.16,405.28"/>
								<path d="M622.67,471.12c-1.19,0.7-2.21,0.8-3.05,0.33c-0.85-0.48-1.27-1.4-1.28-2.77l-0.65-73.47
									c-0.01-1.37,0.39-2.78,1.22-4.24c0.83-1.45,1.84-2.53,3.03-3.23c1.19-0.7,2.21-0.8,3.05-0.34c0.84,0.48,1.27,1.4,1.28,2.77
									l0.65,73.47c0.01,1.37-0.4,2.78-1.22,4.24C624.87,469.35,623.86,470.43,622.67,471.12 M621.91,385.5
									c-3.53,2.07-6.55,5.08-9.06,9.03c-2.51,3.96-3.75,7.67-3.72,11.14l0.56,62.6c0.03,3.46,1.32,5.69,3.88,6.69
									c2.55,1,5.59,0.46,9.12-1.6c3.56-2.09,6.59-5.11,9.08-9.06c2.49-3.95,3.72-7.66,3.69-11.12l-0.56-62.6
									c-0.03-3.46-1.32-5.7-3.85-6.7C628.53,382.88,625.47,383.42,621.91,385.5"/>
								<path d="M654.84,452.29c-1.19,0.7-2.21,0.8-3.05,0.33c-0.84-0.48-1.27-1.4-1.28-2.77l-0.65-73.47
									c-0.01-1.37,0.4-2.78,1.22-4.24c0.83-1.45,1.84-2.53,3.03-3.23c1.19-0.7,2.21-0.8,3.05-0.34c0.84,0.48,1.27,1.4,1.28,2.77
									l0.65,73.47c0.01,1.37-0.4,2.78-1.22,4.24C657.04,450.51,656.03,451.59,654.84,452.29 M654.08,366.67
									c-3.53,2.07-6.55,5.08-9.06,9.03c-2.51,3.96-3.75,7.67-3.72,11.14l0.56,62.6c0.03,3.46,1.32,5.69,3.88,6.69
									c2.55,1,5.59,0.46,9.12-1.6c3.56-2.09,6.59-5.11,9.08-9.06c2.5-3.95,3.72-7.66,3.69-11.12l-0.56-62.6
									c-0.03-3.46-1.31-5.7-3.85-6.7C660.7,364.04,657.65,364.58,654.08,366.67"/>
								<polyline points="708.38,335.49 697.01,342.14 691.16,413.41 683.17,350.24 671.8,356.9 671.82,359.14 674.49,357.57 
									675.22,439.74 672.55,441.31 672.57,443.55 680.59,438.85 680.57,436.62 677.9,438.18 677.37,379.15 684.99,436.28 
									691.86,432.26 697.34,367.47 697.86,426.49 695.19,428.06 695.21,430.29 709.15,422.13 709.13,419.9 706.46,421.46 
									705.73,339.29 708.4,337.72 708.38,335.49 								"/>
								<polyline points="725.77,325.3 711.83,333.46 711.85,335.7 714.53,334.13 715.26,416.31 712.58,417.87 712.6,420.11 
									726.54,411.95 726.52,409.71 723.85,411.28 723.12,329.1 725.79,327.54 725.77,325.3 								"/>
								<polyline points="757.11,306.95 749.1,311.65 749.12,313.88 751.79,312.32 752.3,370.27 740.08,316.93 729.23,323.28 
									729.25,325.51 731.93,323.95 732.66,406.12 729.98,407.69 730,409.92 738.02,405.23 738,402.99 735.33,404.56 
									734.75,339.36 748.35,399.19 755.21,395.17 754.46,310.76 757.13,309.19 757.11,306.95 								"/>
								<path d="M774.82,295.98c-3.53,2.07-6.55,5.08-9.06,9.03c-2.52,3.97-3.76,7.68-3.73,11.14l0.56,62.6
									c0.03,3.46,1.32,5.69,3.88,6.69c2.55,1,5.59,0.46,9.12-1.6c3.56-2.09,6.59-5.1,9.08-9.06c2.49-3.95,3.72-7.66,3.69-11.12
									l-0.31-34.86l-12.89,7.55l0.02,2.24l4.29-2.51l0.34,38.06c0.01,1.37-0.4,2.78-1.23,4.24c-0.83,1.46-1.84,2.54-3.02,3.23
									c-1.19,0.7-2.21,0.8-3.05,0.33s-1.28-1.4-1.29-2.77l-0.65-73.47c-0.01-1.37,0.4-2.78,1.23-4.24
									c0.83-1.45,1.84-2.53,3.03-3.23c1.18-0.69,2.2-0.8,3.05-0.33c0.85,0.48,1.28,1.4,1.29,2.77l0.17,19.4l8.6-5.03l-0.12-13.96
									c-0.03-3.46-1.32-5.7-3.85-6.7C781.43,293.36,778.38,293.9,774.82,295.98"/>
							</g>
						</g>
					</g>
				</g>
			</g>
		</g>
	</g>
	<g>
		<g>
			<g class="st0">
				<defs>
					<polygon id="SVGID_5_" class="st0" points="712.6,327.79 713.14,290.7 787.78,249.33 787.24,286.42 					"/>
				</defs>
				<clipPath id="SVGID_6_">
					<use xlink:href="#SVGID_5_"  style="overflow:visible;"/>
				</clipPath>
				<g class="st3">
					<g>
						<g>
							<g>
								<polyline points="787.78,249.33 713.14,290.7 713.1,293.63 787.74,252.26 787.78,249.33 								"/>
								<polyline points="787.71,254.21 713.07,295.58 713.03,298.51 787.67,257.14 787.71,254.21 								"/>
								<polyline points="787.64,259.09 713,300.46 712.96,303.39 787.59,262.02 787.64,259.09 								"/>
								<polyline points="787.57,263.97 712.93,305.34 712.89,308.27 787.52,266.9 787.57,263.97 								"/>
								<polyline points="787.49,268.85 712.86,310.22 712.82,313.15 787.45,271.78 787.49,268.85 								"/>
								<polyline points="787.42,273.73 712.79,315.1 712.74,318.02 787.38,276.65 787.42,273.73 								"/>
								<polyline points="787.35,278.61 712.72,319.98 712.67,322.91 787.31,281.54 787.35,278.61 								"/>
								<polyline points="787.28,283.49 712.64,324.86 712.6,327.79 787.24,286.42 787.28,283.49 								"/>
							</g>
						</g>
					</g>
				</g>
			</g>
		</g>
	</g>
	<g>
		<g>
			<g class="st0">
				<defs>
					<polygon id="SVGID_7_" class="st0" points="486.68,509.78 487.22,472.7 541.99,442.34 541.45,479.42 					"/>
				</defs>
				<clipPath id="SVGID_8_">
					<use xlink:href="#SVGID_7_"  style="overflow:visible;"/>
				</clipPath>
				<g class="st4">
					<g>
						<g>
							<g>
								<polyline points="541.99,442.34 487.22,472.7 487.18,475.62 541.95,445.27 541.99,442.34 								"/>
								<polyline points="541.92,447.22 487.15,477.58 487.1,480.5 541.87,450.14 541.92,447.22 								"/>
								<polyline points="541.85,452.1 487.08,482.45 487.03,485.38 541.8,455.02 541.85,452.1 								"/>
								<polyline points="541.77,456.97 487,487.33 486.96,490.26 541.73,459.9 541.77,456.97 								"/>
								<polyline points="541.7,461.85 486.93,492.21 486.89,495.15 541.66,464.79 541.7,461.85 								"/>
								<polyline points="541.63,466.74 486.86,497.1 486.82,500.02 541.59,469.66 541.63,466.74 								"/>
								<polyline points="541.56,471.62 486.79,501.97 486.75,504.9 541.52,474.54 541.56,471.62 								"/>
								<polyline points="541.49,476.49 486.72,506.85 486.68,509.78 541.45,479.42 541.49,476.49 								"/>
							</g>
						</g>
					</g>
				</g>
			</g>
		</g>
	</g>
</g>
</svg>
