<?xml version="1.0" encoding="utf-8"?>
<!-- Generator: Adobe Illustrator 25.1.0, SVG Export Plug-In . SVG Version: 6.00 Build 0)  -->
<svg version="1.1" id="Layer_1" xmlns="http://www.w3.org/2000/svg" xmlns:xlink="http://www.w3.org/1999/xlink" x="0px" y="0px"
	 viewBox="0 0 1366 768" style="enable-background:new 0 0 1366 768;" xml:space="preserve">
<style type="text/css">
	.st0{fill:none;stroke:#000000;stroke-width:5;stroke-linecap:round;stroke-miterlimit:10;}
	.st1{fill:none;stroke:#000000;stroke-width:2;stroke-miterlimit:10;}
</style>
<g>
	<path d="M584.34,282.8l-0.68,75.8c41.58,0.37,76.1-33.54,76.47-75.12c0-0.21,0-0.42,0-0.62L584.34,282.8z"/>
	<path d="M698.34,282.8l-0.68,75.8c41.58,0.37,76.1-33.54,76.47-75.12c0-0.21,0-0.42,0-0.62L698.34,282.8z"/>
	<path d="M668.29,445.94h32.03c0,17.57-14.46,32.03-32.03,32.03c-17.26,0-31.57-13.95-32.02-31.2L668.29,445.94z"/>
	<path class="st0" d="M667.32,477.94c0,17.57-14.46,32.03-32.03,32.03c-17.26,0-31.57-13.95-32.02-31.2"/>
	<path class="st0" d="M668.27,476.77c0.45,17.25,14.76,31.2,32.02,31.2c17.57,0,32.03-14.46,32.03-32.03"/>
</g>
<path d="M783.24,226.67"/>
<g>
	<circle class="st1" cx="712.24" cy="437.67" r="5"/>
	<circle class="st1" cx="733.38" cy="445.76" r="5"/>
	<circle class="st1" cx="717.38" cy="455.76" r="5"/>
</g>
<g>
	<circle class="st1" cx="600.24" cy="438.67" r="5"/>
	<circle class="st1" cx="621.38" cy="446.76" r="5"/>
	<circle class="st1" cx="605.38" cy="456.76" r="5"/>
</g>
<g>
	<path d="M646.71,386.67h-11.47l0.01-12.34c-2.85-1.32-6.02-2.07-9.37-2.07c-12.29,0-22.25,9.96-22.25,22.25
		c0,12.29,9.96,22.25,22.25,22.25s22.25-9.96,22.25-22.25C648.13,391.75,647.62,389.11,646.71,386.67z"/>
</g>
<g>
	<path d="M721.71,386.67h-11.47l0.01-12.34c-2.85-1.32-6.02-2.07-9.37-2.07c-12.29,0-22.25,9.96-22.25,22.25
		c0,12.29,9.96,22.25,22.25,22.25s22.25-9.96,22.25-22.25C723.13,391.75,722.62,389.11,721.71,386.67z"/>
</g>
<path d="M636.27,509.77c0,0,27.2,2.43,31.58-33.83c0,0,0.38,29.73,32.88,32.23c0,0-0.39,31.09-32.45,32.8
	C668.29,540.97,639.31,541.88,636.27,509.77z"/>
</svg>
