<?xml version="1.0" encoding="utf-8"?>
<!-- Generator: Adobe Illustrator 25.2.0, SVG Export Plug-In . SVG Version: 6.00 Build 0)  -->
<svg version="1.1" id="Layer_1" xmlns="http://www.w3.org/2000/svg" xmlns:xlink="http://www.w3.org/1999/xlink" x="0px" y="0px"
	 viewBox="0 0 1128 147" style="enable-background:new 0 0 1128 147;" xml:space="preserve">
<style type="text/css">
	.st0{fill:#D1637F;}
</style>
<g>
	<g>
		<path class="st0" d="M5.26,127.53c37.46-22.47,80.63,5.39,118.91,10.12c39.89,4.94,73.34-19.92,111.86-23.93
			c20.25-2.11,38.78,4.64,57.57,11.24c18.55,6.51,36.59,10.91,56.3,7.69c20.42-3.33,39.69-12.27,60.45-13.75
			c19.31-1.38,38.27,3.63,56.57,9.22c17.78,5.42,35.46,11.68,53.97,14.17c18.69,2.52,36.06-0.28,53.41-7.51
			c18.27-7.61,35.69-17.17,55.99-17.45c19.4-0.26,38.2,5.77,56.67,10.95c17.3,4.85,35.29,9.56,53.42,8.16
			c19.88-1.53,37.41-13.15,57.66-11.76c18.32,1.26,35.48,8.95,53.66,11.17c8.04,0.98,16.36,0.77,24.09-1.86
			c9.03-3.07,15.9-9.66,24.23-14.02c29.81-15.6,65.11,6.01,94.05,13.83c15.35,4.15,31.18,5.83,46.6,1.13
			c10.3-3.14,20-7.8,30.85-8.84c9.19-0.88,18.53,0.3,27.28,3.22c9.17,3.06,17.44,8.12,24.44,14.77c2.33,2.21,5.88-1.32,3.54-3.54
			c-12.64-11.98-29.26-19.01-46.69-19.68c-9.36-0.36-18.39,1.44-27.2,4.5c-9.41,3.26-18.5,6.97-28.57,7.46
			c-33.45,1.61-62.71-19.95-95.5-22.87c-7.31-0.65-14.8-0.2-21.87,1.87c-8.45,2.47-15.2,7.52-22.5,12.25
			c-17.54,11.38-36.85,6.73-55.73,1.74c-17.7-4.67-35.1-8.77-53.2-3.68c-10.58,2.98-20.66,7.57-31.65,8.96
			c-9.7,1.23-19.59,0.47-29.18-1.24c-36.36-6.45-71.93-25.42-109.28-13.39c-19.17,6.17-36.5,17.66-56.62,20.91
			c-19.22,3.1-38.66-1.41-57.03-6.82c-18.53-5.46-36.81-12.23-55.96-15.27c-19.25-3.06-37.21-0.57-55.84,4.65
			c-21.08,5.9-41.32,11.86-63.28,6.84c-19.45-4.45-37.47-13.87-57.21-17.24c-38.94-6.64-72.62,17.4-109.95,22.92
			c-42.18,6.24-80.01-22.96-122.16-17.65c-8.76,1.1-17.05,3.85-24.63,8.39C-0.02,124.87,2.49,129.19,5.26,127.53L5.26,127.53z"/>
	</g>
</g>
</svg>
